# xmcd
#
# Track frame offsets:
#	150
#	15564
#	52374
#	86638
#	122745
#	155803
#	193901
#	216666
#	244525
#	266194
#	282398
#	301560
#
# Disc length: 4468 seconds
#
# Revision: 1
# Processed by: cddbd v1.5.1PL0 Copyright (c) Steve Scherf et al.
# Submitted via: EasyCDDAExtractor 7.1.0.1
#
DISCID=b711720c
DTITLE=Rainhard Fendrich - Scooty´s Fendrich Favourites
DYEAR=2001
DGENRE=Pop
TTITLE0=I Bin Net Eifersüchtig
TTITLE1=Lügen Haben Lange Beine - Du Musst Verrückt Sein
TTITLE2=Jetzt Und Für Immer - Für Dich
TTITLE3=Es Tuat So Weh Wenn Man Verliert - Männersache
TTITLE4=Nur Die Liebe Zählt - Herz
TTITLE5=Zwischen Eins Und Vier - Weils´t A Herz Hast Wia A Bergwerk
TTITLE6=Von Zeit Zu Zeit
TTITLE7=Löwin Und Lamm
TTITLE8=Tränen Trocknen Schnell
TTITLE9=Manchmal Denk I No An Di
TTITLE10=Vü Schöner Is Des G´fühl
TTITLE11=I Am From Austria (LIVE)
EXTD=
EXTT0=
EXTT1=
EXTT2=
EXTT3=
EXTT4=
EXTT5=
EXTT6=
EXTT7=
EXTT8=
EXTT9=
EXTT10=
EXTT11=
PLAYORDER=
